<svg width="222" height="60" viewBox="0 0 222 60" fill="none" xmlns="http://www.w3.org/2000/svg">
<g clip-path="url(#clip0_0_30)">
<path d="M6.7453 48.5363C5.12001 47.0013 4.12631 45.1773 3.21681 43.3451C-3.86542 29.0755 1.06941 12.5859 14.8802 4.28325C26.0046 -2.40176 40.767 -1.14729 50.6282 7.26262C51.6472 8.13745 51.4114 8.41805 50.3588 8.91324C43.9334 11.9421 37.0617 13.6588 30.2657 15.5982C25.592 16.9352 21.0698 18.5611 17.3729 21.8128C14.0128 24.7674 12.2696 28.6629 10.8464 32.7399C9.81062 35.7028 8.77481 38.6739 8.31165 41.8266C9.16219 40.3245 10.0548 38.8555 10.8464 37.3286C13.8444 31.4937 18.914 28.176 25.0193 26.1952C30.1057 24.5446 35.2595 23.1086 40.3375 21.4579C44.8681 19.9889 49.1545 18.0329 52.4135 14.4263C52.9778 13.7991 53.5083 13.1141 53.9294 12.3795C54.4431 11.4799 54.7546 11.4799 55.3778 12.33C59.9758 18.6354 61.8621 25.6258 61.0284 33.3341C59.7063 45.5735 50.4767 56.1457 38.308 59.0178C27.1078 61.6588 17.2887 58.96 8.91798 51.1856C7.88217 50.2282 7.74743 49.6588 8.65692 48.3383C11.8317 43.7 16.2781 41.8678 21.7603 41.8596C23.3856 41.8596 25.0109 41.744 26.6446 41.6945C32.2363 41.5212 35.9416 38.7069 38.1901 33.8211C38.4259 33.3094 38.687 32.8059 38.8975 32.286C39.0322 31.9476 39.2764 31.5515 38.948 31.2379C38.6449 30.949 38.1985 31.081 37.8533 31.2131C32.1353 33.3589 26.0972 34.1347 20.1435 35.2984C15.7476 36.1567 12.6317 38.8059 10.2654 42.4538C9.01061 44.3933 7.9748 46.4483 6.7453 48.5446V48.5363Z" fill="#01A9B6"/>
<path d="M83.0836 29.315V36.1073C83.0836 37.2627 83.151 38.1211 83.2773 38.674C83.4036 39.227 83.6479 39.6891 84.01 40.0605C84.3216 40.3907 84.6921 40.63 85.1131 40.7868C85.5342 40.9436 86.0816 41.0344 86.7384 41.0674V41.4553H75.6309V41.0674C76.1867 41.0674 76.7172 40.9766 77.2141 40.8033C77.7109 40.63 78.0983 40.3907 78.3762 40.0935C78.7046 39.7387 78.932 39.26 79.0751 38.6493C79.2183 38.0385 79.2857 37.1885 79.2857 36.1073V23.5543C79.2857 22.8281 79.2436 22.0688 79.1678 21.293C79.0499 20.2944 78.553 19.5516 77.6772 19.0647C77.1888 18.8006 76.5151 18.652 75.6477 18.6025V18.2146H93.8038L94.3091 23.7524L93.9133 23.8349C93.627 22.9684 93.3575 22.3246 93.1133 21.8955C92.5659 20.9051 91.808 20.1376 90.8227 19.5929C90.2585 19.271 89.6017 19.0564 88.8606 18.9244C88.1195 18.8006 87.1006 18.7345 85.8037 18.7345H83.1089V28.7868H83.8079C85.8626 28.7868 87.3448 28.3411 88.2711 27.4415C88.6753 27.0536 88.9869 26.5997 89.189 26.0715C89.3995 25.5433 89.5343 24.8501 89.6101 24L90.0059 24.0165L89.9048 34.3411H89.4838C89.3574 33.1857 89.1385 32.2861 88.8353 31.6589C88.5322 31.0316 88.0606 30.5199 87.4374 30.1321C86.9742 29.8514 86.4016 29.6451 85.7279 29.5131C85.0542 29.381 84.1784 29.315 83.1089 29.315H83.0836Z" fill="white"/>
<path d="M96.5323 29.9835C96.5323 28.077 96.9534 26.3026 97.7871 24.6768C98.6208 23.0426 99.8419 21.6231 101.433 20.4099C102.629 19.5103 103.909 18.8253 105.29 18.3384C106.671 17.8597 108.061 17.6121 109.459 17.6121C111.244 17.6121 112.971 17.9917 114.638 18.7593C116.305 19.5268 117.762 20.608 119.017 22.0028C121.055 24.2724 122.074 26.8638 122.074 29.7607C122.074 31.2132 121.804 32.6162 121.274 33.9697C120.743 35.3232 119.96 36.553 118.941 37.6671C117.686 39.0536 116.213 40.1266 114.503 40.8858C112.794 41.6451 111.008 42.0248 109.139 42.0248C107.269 42.0248 105.535 41.6534 103.859 40.9188C102.183 40.1761 100.735 39.1362 99.5135 37.7827C98.5534 36.7263 97.8124 35.5213 97.2987 34.1761C96.785 32.8308 96.5239 31.4278 96.5239 29.9752L96.5323 29.9835ZM100.735 30.2393C100.735 33.5323 101.652 36.3136 103.48 38.575C104.305 39.5901 105.173 40.3246 106.099 40.7785C107.017 41.2407 108.086 41.4718 109.29 41.4718C110.495 41.4718 111.573 41.2407 112.499 40.7868C113.417 40.3329 114.301 39.5901 115.135 38.575C116.962 36.3054 117.88 33.4993 117.88 30.1733C117.88 28.3411 117.627 26.6162 117.122 24.9821C116.617 23.348 115.91 21.9697 114.992 20.8308C114.251 19.8982 113.425 19.2215 112.516 18.7923C111.606 18.3631 110.528 18.1568 109.29 18.1568C108.053 18.1568 107 18.3631 106.099 18.784C105.198 19.205 104.372 19.89 103.606 20.8308C102.688 21.9532 101.981 23.3398 101.484 24.9739C100.987 26.608 100.735 28.3659 100.735 30.2393Z" fill="white"/>
<path d="M132.752 30.0743V36.1073C132.752 37.2627 132.819 38.1293 132.954 38.6905C133.089 39.2517 133.333 39.7139 133.695 40.077C134.007 40.3989 134.369 40.63 134.781 40.7868C135.194 40.9436 135.733 41.0344 136.407 41.0674V41.4553H125.299V41.0674C125.973 41.0344 126.512 40.9436 126.924 40.7868C127.337 40.63 127.699 40.3989 128.011 40.077C128.381 39.7139 128.634 39.2517 128.76 38.6988C128.887 38.1458 128.954 37.2792 128.954 36.1073V23.5543C128.954 22.3824 128.887 21.5241 128.76 20.9629C128.634 20.4099 128.381 19.9477 128.011 19.5846C127.699 19.2545 127.337 19.0151 126.916 18.8666C126.495 18.718 125.964 18.6272 125.299 18.5942V18.2063H133.678C135.076 18.2063 136.002 18.2063 136.44 18.2228C138.234 18.3054 139.64 18.5447 140.659 18.9409C141.805 19.3948 142.697 20.0715 143.329 20.9794C143.96 21.879 144.272 22.9271 144.272 24.1238C144.272 25.8982 143.59 27.3177 142.217 28.3824C141.796 28.7043 141.341 28.9601 140.836 29.1664C140.331 29.3728 139.657 29.5626 138.815 29.7442C139.514 30.0248 140.028 30.3219 140.365 30.6272C140.634 30.8666 140.87 31.1637 141.097 31.5186C141.316 31.8735 141.645 32.5089 142.091 33.4168C143.118 35.4966 143.902 37.0151 144.432 37.9725C144.963 38.9298 145.401 39.6314 145.763 40.0605C146.049 40.4154 146.335 40.6547 146.605 40.795C146.874 40.9354 147.253 41.0261 147.725 41.0674V41.4553H141.956C141.67 40.8281 141.485 40.4319 141.4 40.2669L140.188 37.5598C139.455 35.934 138.722 34.4979 137.981 33.2517C137.24 32.0138 136.558 31.1719 135.952 30.718C135.64 30.4952 135.303 30.3301 134.941 30.2311C134.579 30.1321 134.141 30.0825 133.619 30.0825H132.769L132.752 30.0743ZM132.752 29.7029H133.409C134.849 29.7029 135.876 29.6204 136.491 29.4636C137.114 29.3067 137.695 28.9766 138.234 28.4732C139.447 27.3343 140.061 25.9312 140.061 24.2476C140.061 23.348 139.885 22.5062 139.531 21.7221C139.177 20.9299 138.689 20.2861 138.066 19.7744C137.577 19.3865 136.996 19.1224 136.331 18.9656C135.657 18.8088 134.706 18.7345 133.459 18.7345H132.743V29.7029H132.752Z" fill="white"/>
<path d="M158.428 18.7345C157.696 18.7345 156.913 18.7593 156.079 18.8006C154.294 18.8913 152.963 19.1142 152.087 19.4691C151.211 19.8239 150.487 20.4264 149.923 21.293C149.401 22.0853 149.005 23.1664 148.727 24.5282L148.331 24.4952L148.643 18.2146H172.155L172.466 24.4952L172.071 24.5282C171.759 22.9519 171.271 21.7552 170.605 20.9464C169.94 20.1376 168.972 19.5516 167.692 19.1967C166.614 18.8913 164.786 18.7345 162.218 18.7345V36.1073C162.218 37.2627 162.285 38.1293 162.42 38.6905C162.555 39.2517 162.799 39.7139 163.161 40.077C163.489 40.4072 163.852 40.6465 164.264 40.7951C164.677 40.9436 165.207 41.0344 165.873 41.0674V41.4553H154.765V41.0674C155.439 41.0344 155.978 40.9436 156.39 40.7951C156.803 40.6465 157.165 40.4072 157.494 40.077C157.856 39.7139 158.1 39.2517 158.235 38.6988C158.369 38.1458 158.437 37.2792 158.437 36.1073V18.7345H158.428Z" fill="white"/>
<path d="M192.871 18.2063L193.166 23.8267L192.77 23.8432C192.618 22.8858 192.374 22.1018 192.02 21.4746C191.675 20.8473 191.17 20.3026 190.505 19.8239C189.957 19.4278 189.317 19.1472 188.576 18.9821C187.835 18.8171 186.85 18.7345 185.62 18.7345H181.637V28.9519H182.681C183.734 28.9519 184.526 28.8858 185.065 28.7455C185.603 28.6052 186.033 28.3659 186.37 28.011C186.698 27.6809 186.934 27.293 187.094 26.8473C187.254 26.4017 187.38 25.7414 187.481 24.8666L187.877 24.8831L187.81 34.011H187.414C187.313 33.1362 187.153 32.4347 186.951 31.8982C186.749 31.3618 186.471 30.9078 186.109 30.5365C185.763 30.1733 185.309 29.9092 184.753 29.7359C184.197 29.5626 183.49 29.4801 182.631 29.4801H181.637V33.3838C181.637 34.9436 181.679 36.0743 181.755 36.784C181.831 37.4938 181.991 38.088 182.227 38.5667C182.622 39.3838 183.22 39.9862 184.029 40.3659C184.837 40.7455 185.898 40.9354 187.22 40.9354C188.61 40.9354 189.772 40.762 190.715 40.4154C191.65 40.0688 192.416 39.5323 193.006 38.8061C193.427 38.3191 193.764 37.7579 194.025 37.1389C194.286 36.5117 194.522 35.6946 194.749 34.6713L195.145 34.6878L194.917 41.4636H174.184V41.0757C174.841 41.0426 175.38 40.9519 175.793 40.8033C176.205 40.6547 176.576 40.4154 176.896 40.0853C177.258 39.7221 177.502 39.26 177.637 38.6988C177.772 38.1376 177.839 37.2792 177.839 36.1155V23.5626C177.839 22.4072 177.772 21.5406 177.637 20.9794C177.502 20.4182 177.258 19.956 176.896 19.5928C176.584 19.2627 176.222 19.0234 175.81 18.8748C175.397 18.7263 174.858 18.6355 174.184 18.6025V18.2146H192.863L192.871 18.2063Z" fill="white"/>
<path d="M196.694 18.2063H208.147V18.5942C207.347 18.5942 206.732 18.6602 206.303 18.8005C205.604 19.0151 205.258 19.4278 205.258 20.0303C205.258 20.6327 205.73 21.6396 206.682 22.9931L209.722 27.3508L212.383 24.132C213.427 22.8693 214.101 21.9862 214.412 21.4828C214.724 20.9794 214.884 20.5089 214.884 20.0798C214.884 19.4773 214.556 19.0646 213.907 18.8336C213.604 18.718 213.082 18.6437 212.324 18.5942V18.2063H220.299V18.5942C219.415 18.5942 218.732 18.7098 218.244 18.9326C217.495 19.271 216.492 20.2118 215.238 21.7634L213.916 23.3975L210.143 27.978L216.122 36.6768C217.175 38.2201 218.135 39.3425 218.993 40.0358C219.431 40.3906 219.861 40.6382 220.29 40.7868C220.711 40.9353 221.276 41.0261 221.983 41.0591V41.447H209.907V41.0591C210.842 40.9601 211.532 40.795 211.962 40.5805C212.661 40.2421 213.006 39.7634 213.006 39.1527C213.006 38.9381 212.939 38.6905 212.795 38.4016C212.661 38.121 212.4 37.6919 212.012 37.1224L207.768 30.8171L203.633 35.7524C202.993 36.5117 202.538 37.1472 202.269 37.6506C201.999 38.1541 201.856 38.6245 201.856 39.0536C201.856 39.6644 202.092 40.1431 202.564 40.4732C203.035 40.8116 203.734 41.0014 204.661 41.0426V41.4305H196.214V41.0426C196.854 40.9271 197.385 40.7703 197.806 40.5557C198.227 40.3494 198.724 39.978 199.288 39.458C200.122 38.707 201.301 37.4278 202.816 35.6286L207.339 30.2146L201.949 22.2916L201.031 20.9794C200.357 20.0138 199.793 19.3865 199.33 19.1059C198.909 18.8583 198.21 18.6933 197.208 18.6107C197.09 18.6107 196.921 18.6025 196.686 18.5777V18.1898L196.694 18.2063Z" fill="white"/>
</g>
<defs>
<clipPath id="clip0_0_30">
<rect width="222" height="60" fill="white"/>
</clipPath>
</defs>
</svg>
