<svg width="1171" height="1171" viewBox="0 0 1171 1171" fill="none" xmlns="http://www.w3.org/2000/svg">
<path d="M128.984 947.17C97.9389 917.235 78.9584 881.676 61.5183 845.86C-74.0057 567.502 20.5304 245.625 284.663 83.5823C497.369 -46.9091 779.803 -22.4245 968.359 141.772C987.899 158.792 983.267 164.361 963.285 173.97C840.418 233.022 708.988 266.555 579.011 304.461C489.656 330.519 403.178 362.274 332.383 425.797C268.095 483.491 234.712 559.53 207.578 638.963C187.811 696.819 167.893 754.697 159.114 816.269C175.304 787.023 192.507 758.294 207.513 728.445C264.81 614.51 361.791 549.846 478.647 511.153C575.876 478.956 674.452 450.852 771.692 418.698C858.429 390.023 940.383 351.826 1002.61 281.485C1013.46 269.215 1023.55 255.837 1031.55 241.607C1041.37 224.113 1047.37 224.038 1059.22 240.627C1147.11 363.761 1183.26 500.155 1167.35 650.564C1142.1 889.357 965.526 1095.75 732.729 1151.79C518.58 1203.35 330.757 1150.7 170.597 998.875C150.841 980.154 148.266 969.069 165.609 943.238C226.353 852.7 311.335 816.969 416.19 816.818C447.311 816.775 478.432 814.556 509.563 813.587C616.552 810.269 687.443 755.214 730.359 659.893C734.862 649.885 739.839 640.083 743.868 629.893C746.453 623.365 751.182 615.534 744.913 609.512C739.117 603.954 730.596 606.464 723.95 609.017C614.613 650.952 499.071 666.076 385.199 688.761C301.101 705.523 241.51 757.142 196.321 828.323C172.331 866.122 152.5 906.193 128.973 947.17H128.984Z" fill="#1E1E1E" fill-opacity="0.5"/>
</svg>
