<svg width="2202" height="2202" viewBox="0 0 2202 2202" fill="none" xmlns="http://www.w3.org/2000/svg">
<path d="M242.547 1781.1C184.169 1724.81 148.477 1657.94 115.682 1590.59C-139.164 1067.15 38.6063 461.884 535.292 157.172C935.275 -88.21 1466.38 -42.168 1820.94 266.595C1857.69 298.6 1848.98 309.072 1811.4 327.14C1580.36 438.184 1333.21 501.241 1088.8 572.522C920.771 621.522 758.153 681.237 625.028 800.687C504.138 909.178 441.364 1052.17 390.338 1201.53C353.167 1310.33 315.713 1419.16 299.204 1534.95C329.65 1479.95 361.999 1425.93 390.216 1369.8C497.96 1155.55 680.328 1033.96 900.069 961.195C1082.9 900.65 1268.27 847.802 1451.12 787.338C1614.23 733.416 1768.34 661.588 1885.36 529.316C1905.76 506.245 1924.74 481.086 1939.77 454.328C1958.24 421.432 1969.52 421.291 1991.81 452.485C2157.08 684.032 2225.06 940.514 2195.14 1223.35C2147.66 1672.39 1815.62 2060.49 1377.86 2165.88C975.16 2262.83 621.969 2163.82 320.798 1878.33C283.648 1843.12 278.806 1822.28 311.419 1773.71C425.645 1603.45 585.447 1536.27 782.623 1535.98C841.143 1535.9 899.664 1531.73 958.205 1529.9C1159.39 1523.67 1292.7 1420.14 1373.4 1240.89C1381.87 1222.07 1391.23 1203.64 1398.8 1184.48C1403.66 1172.2 1412.56 1157.48 1400.77 1146.15C1389.87 1135.7 1373.85 1140.42 1361.35 1145.22C1155.75 1224.08 938.475 1252.52 724.345 1295.18C566.204 1326.7 454.145 1423.76 369.17 1557.61C324.059 1628.69 286.767 1704.05 242.527 1781.1H242.547Z" fill="#1E1E1E" fill-opacity="0.5"/>
</svg>
