<svg width="1933" height="1933" viewBox="0 0 1933 1933" fill="none" xmlns="http://www.w3.org/2000/svg">
<path d="M212.917 1563.52C161.67 1514.1 130.339 1455.41 101.55 1396.28C-122.163 936.789 33.8901 405.459 469.9 137.971C821.02 -77.4341 1287.24 -37.0167 1598.49 234.027C1630.75 262.122 1623.1 271.315 1590.12 287.176C1387.3 384.655 1170.34 440.009 955.789 502.582C808.288 545.596 665.536 598.016 548.674 702.873C442.552 798.111 387.446 923.631 342.654 1054.75C310.024 1150.26 277.145 1245.8 262.653 1347.44C289.379 1299.16 317.777 1251.74 342.547 1202.46C437.128 1014.39 597.218 907.646 790.115 843.774C950.614 790.625 1113.34 744.233 1273.85 691.155C1417.03 643.821 1552.32 580.767 1655.04 464.654C1672.95 444.401 1689.61 422.316 1702.8 398.827C1719.02 369.949 1728.92 369.825 1748.48 397.209C1893.57 600.469 1953.24 825.619 1926.98 1073.9C1885.3 1468.08 1593.82 1808.78 1209.54 1901.3C856.033 1986.4 545.989 1899.48 281.609 1648.87C248.997 1617.96 244.747 1599.67 273.376 1557.03C373.647 1407.57 513.928 1348.59 687.016 1348.34C738.388 1348.27 789.76 1344.61 841.149 1343.01C1017.76 1337.53 1134.78 1246.65 1205.62 1089.3C1213.06 1072.78 1221.27 1056.6 1227.92 1039.78C1232.19 1029 1240 1016.08 1229.65 1006.14C1220.08 996.962 1206.01 1001.11 1195.04 1005.32C1014.56 1074.54 823.83 1099.51 635.858 1136.96C497.035 1164.62 398.666 1249.83 324.072 1367.33C284.471 1429.73 251.735 1495.88 212.9 1563.52H212.917Z" fill="#1E1E1E" fill-opacity="0.5"/>
</svg>
