<svg width="1763" height="1763" viewBox="0 0 1763 1763" fill="none" xmlns="http://www.w3.org/2000/svg">
<path d="M194.189 1426.01C147.45 1380.94 118.874 1327.41 92.6175 1273.48C-111.418 854.402 30.9091 369.801 428.568 125.837C748.803 -70.6241 1174.02 -33.7612 1457.89 213.446C1487.31 239.07 1480.34 247.454 1450.25 261.92C1265.27 350.826 1067.4 401.312 871.717 458.382C737.191 497.613 606.995 545.422 500.412 641.058C403.625 727.92 353.366 842.401 312.514 961.991C282.754 1049.1 252.768 1136.23 239.55 1228.93C263.925 1184.9 289.825 1141.65 312.416 1096.71C398.678 925.177 544.687 827.822 720.616 769.568C866.998 721.093 1015.41 678.781 1161.8 630.371C1292.39 587.199 1415.77 529.691 1509.46 423.789C1525.79 405.317 1540.99 385.175 1553.02 363.751C1567.81 337.414 1576.85 337.3 1594.69 362.276C1727.01 547.66 1781.43 753.009 1757.48 979.457C1719.47 1338.97 1453.63 1649.7 1103.14 1734.08C780.736 1811.7 497.963 1732.43 256.838 1503.86C227.095 1475.67 223.219 1458.98 249.329 1420.09C340.781 1283.78 468.723 1229.99 626.586 1229.76C673.439 1229.7 720.292 1226.36 767.161 1224.9C928.236 1219.9 1034.96 1137.01 1099.58 993.502C1106.36 978.436 1113.85 963.677 1119.91 948.335C1123.81 938.508 1130.92 926.717 1121.49 917.652C1112.76 909.283 1099.93 913.062 1089.93 916.906C925.317 980.041 751.365 1002.81 579.928 1036.97C453.316 1062.2 363.599 1139.92 295.566 1247.08C259.449 1303.99 229.592 1364.32 194.173 1426.01H194.189Z" fill="#1E1E1E"/>
</svg>
